<svg width="41" height="41" viewBox="0 0 41 41" fill="none" xmlns="http://www.w3.org/2000/svg">
<g clip-path="url(#clip0_555_3819)">
<path fill-rule="evenodd" clip-rule="evenodd" d="M20 5C11.1635 5 4 12.1635 4 21C4 29.8365 11.1635 37 20 37C28.8365 37 36 29.8365 36 21C36 12.1635 28.8365 5 20 5ZM19.5544 18.5587L19.5208 18.005C19.4201 16.5701 20.3042 15.2594 21.7032 14.751C22.218 14.5702 23.0909 14.5476 23.6617 14.7058C23.8855 14.7736 24.3109 14.9995 24.613 15.2029L25.1614 15.5758L25.7657 15.3837C26.1015 15.282 26.5492 15.1125 26.7506 14.9995C26.9409 14.8979 27.1087 14.8413 27.1087 14.8753C27.1087 15.0673 26.6947 15.7227 26.3477 16.0842C25.8777 16.5927 26.012 16.6379 26.9633 16.2989C27.5341 16.1068 27.5452 16.1068 27.4333 16.3215C27.3661 16.4345 27.0192 16.8299 26.6499 17.1915C26.0231 17.8129 25.9896 17.8807 25.9896 18.4005C25.9896 19.2027 25.6091 20.8749 25.2285 21.7901C24.5235 23.5075 23.0126 25.2813 21.5017 26.1739C19.3753 27.4281 16.5438 27.7445 14.16 27.0101C13.3654 26.7615 12 26.1287 12 26.0158C12 25.9819 12.4141 25.9367 12.9177 25.9254C13.9697 25.9028 15.0217 25.609 15.9171 25.0893L16.5215 24.7277L15.8275 24.4905C14.8427 24.1515 13.9585 23.3719 13.7347 22.6375C13.6675 22.4002 13.6899 22.3889 14.3167 22.3889L14.9658 22.3776L14.4174 22.1177C13.7683 21.7901 13.1751 21.2364 12.8841 20.6715C12.6715 20.2647 12.4029 19.2365 12.4813 19.1575C12.5036 19.1236 12.7387 19.1913 13.0073 19.2817C13.7795 19.5642 13.8802 19.4964 13.4325 19.0219C12.5931 18.1632 12.3357 16.8864 12.7387 15.6775L12.9289 15.1351L13.6675 15.8695C15.1785 17.3497 16.9579 18.231 18.9948 18.4909L19.5544 18.5587Z" fill="white"/>
</g>
<defs>
<clipPath id="clip0_555_3819">
<rect width="32" height="32" fill="white" transform="translate(4 5)"/>
</clipPath>
</defs>
</svg>
