<svg width="41" height="41" viewBox="0 0 41 41" fill="none" xmlns="http://www.w3.org/2000/svg">
<g clip-path="url(#clip0_555_3818)">
<path fill-rule="evenodd" clip-rule="evenodd" d="M20 5C11.1635 5 4 12.1635 4 21C4 29.8365 11.1635 37 20 37C28.8365 37 36 29.8365 36 21C36 12.1635 28.8365 5 20 5ZM26.6677 15.4995C27.4021 15.7011 27.9804 16.2948 28.1767 17.0488C28.5333 18.4153 28.5333 21.2667 28.5333 21.2667C28.5333 21.2667 28.5333 24.1179 28.1767 25.4845C27.9804 26.2385 27.4021 26.8323 26.6677 27.0339C25.3369 27.4 20 27.4 20 27.4C20 27.4 14.6631 27.4 13.3322 27.0339C12.5978 26.8323 12.0195 26.2385 11.8232 25.4845C11.4667 24.1179 11.4667 21.2667 11.4667 21.2667C11.4667 21.2667 11.4667 18.4153 11.8232 17.0488C12.0195 16.2948 12.5978 15.7011 13.3322 15.4995C14.6631 15.1333 20 15.1333 20 15.1333C20 15.1333 25.3369 15.1333 26.6677 15.4995Z" fill="white"/>
<path d="M18.4001 24.2005V18.8672L22.6668 21.5339L18.4001 24.2005Z" fill="white"/>
</g>
<defs>
<clipPath id="clip0_555_3818">
<rect width="32" height="32" fill="white" transform="translate(4 5)"/>
</clipPath>
</defs>
</svg>
