<svg width="41" height="41" viewBox="0 0 41 41" fill="none" xmlns="http://www.w3.org/2000/svg">
<g clip-path="url(#clip0_555_3817)">
<path fill-rule="evenodd" clip-rule="evenodd" d="M20 5C11.1635 5 4 12.1635 4 21C4 29.8365 11.1635 37 20 37C28.8365 37 36 29.8365 36 21C36 12.1635 28.8365 5 20 5ZM21.6677 21.7028V30.4077H18.0661V21.7031H16.2667V18.7034H18.0661V16.9024C18.0661 14.4552 19.0821 13 21.9688 13H24.3721V16.0001H22.8699C21.7461 16.0001 21.6718 16.4193 21.6718 17.2017L21.6677 18.7031H24.3891L24.0706 21.7028H21.6677Z" fill="white"/>
</g>
<defs>
<clipPath id="clip0_555_3817">
<rect width="32" height="32" fill="white" transform="translate(4 5)"/>
</clipPath>
</defs>
</svg>
