<svg width="41" height="41" viewBox="0 0 41 41" fill="none" xmlns="http://www.w3.org/2000/svg">
<g clip-path="url(#clip0_555_3822)">
<path fill-rule="evenodd" clip-rule="evenodd" d="M4 21C4 12.1635 11.1635 5 20 5C28.8365 5 36 12.1635 36 21C36 29.8365 28.8365 37 20 37C11.1635 37 4 29.8365 4 21ZM17.072 20.5429V22.28H19.9551C19.8389 23.0255 19.0837 24.4659 17.072 24.4659C15.3363 24.4659 13.9202 23.0327 13.9202 21.2667C13.9202 19.5006 15.3363 18.0674 17.072 18.0674C18.0597 18.0674 18.7205 18.4873 19.0982 18.8491L20.478 17.5246C19.592 16.6994 18.4446 16.2 17.072 16.2C14.2615 16.2 11.9885 18.4655 11.9885 21.2667C11.9885 24.0678 14.2615 26.3333 17.072 26.3333C20.0059 26.3333 21.9523 24.2777 21.9523 21.3825C21.9523 21.0495 21.9159 20.7962 21.8723 20.5429H17.072ZM26.5129 20.5429H27.9654V21.9905H26.5129V23.4381H25.0605V21.9905H23.608V20.5429H25.0605V19.0953H26.5129V20.5429Z" fill="white"/>
</g>
<defs>
<clipPath id="clip0_555_3822">
<rect width="32" height="32" fill="white" transform="translate(4 5)"/>
</clipPath>
</defs>
</svg>
