<svg width="41" height="41" viewBox="0 0 41 41" fill="none" xmlns="http://www.w3.org/2000/svg">
<g clip-path="url(#clip0_555_3820)">
<path fill-rule="evenodd" clip-rule="evenodd" d="M4 21C4 29.8365 11.1635 37 20 37C28.8365 37 36 29.8365 36 21C36 12.1635 28.8365 5 20 5C11.1635 5 4 12.1635 4 21ZM17.0667 28.3333L17.3389 24.2549L17.3387 24.2547L24.7579 17.5593C25.0835 17.2703 24.6869 17.1294 24.2546 17.3915L15.0982 23.1682L11.1431 21.9338C10.289 21.6723 10.2829 21.0853 11.3349 20.6634L26.7469 14.7206C27.4508 14.401 28.1302 14.8897 27.8615 15.967L25.2368 28.3354C25.0535 29.2143 24.5225 29.4245 23.7867 29.0185L19.7885 26.0646L17.8667 27.9333C17.8606 27.9392 17.8546 27.9451 17.8486 27.9509C17.6337 28.1602 17.4558 28.3333 17.0667 28.3333Z" fill="white"/>
</g>
<defs>
<clipPath id="clip0_555_3820">
<rect width="32" height="32" fill="white" transform="translate(4 5)"/>
</clipPath>
</defs>
</svg>
