<svg width="41" height="41" viewBox="0 0 41 41" fill="none" xmlns="http://www.w3.org/2000/svg">
<g clip-path="url(#clip0_555_3821)">
<path fill-rule="evenodd" clip-rule="evenodd" d="M4 21C4 29.8365 11.1635 37 20 37C28.8365 37 36 29.8365 36 21C36 12.1635 28.8365 5 20 5C11.1635 5 4 12.1635 4 21ZM30.0414 20.3877C30.0393 25.6322 25.773 29.8995 20.5274 29.9017H20.5235C18.9311 29.9011 17.3665 29.5016 15.9769 28.7437L10.9333 30.0667L12.2831 25.1365C11.4505 23.6937 11.0124 22.057 11.0131 20.3801C11.0152 15.1345 15.2832 10.8667 20.5273 10.8667C23.0724 10.8678 25.4612 11.8586 27.2575 13.6569C29.0537 15.4552 30.0425 17.8455 30.0414 20.3877Z" fill="white"/>
<path fill-rule="evenodd" clip-rule="evenodd" d="M13.2176 27.8055L16.2105 27.0203L16.4993 27.1917C17.7134 27.9122 19.1051 28.2934 20.5241 28.294H20.5273C24.8859 28.294 28.4332 24.7465 28.435 20.3862C28.4358 18.2732 27.6141 16.2865 26.1211 14.7917C24.6281 13.297 22.6426 12.4734 20.5305 12.4727C16.1685 12.4727 12.6211 16.0198 12.6194 20.3798C12.6188 21.874 13.0369 23.3291 13.8285 24.5881L14.0165 24.8873L13.2176 27.8055ZM24.9949 22.4351C25.1607 22.5153 25.2727 22.5693 25.3205 22.6491C25.3799 22.7483 25.3799 23.2243 25.1819 23.7797C24.9837 24.3349 24.034 24.8417 23.5772 24.9099C23.1677 24.9712 22.6494 24.9967 22.0799 24.8157C21.7346 24.7062 21.2919 24.5599 20.7247 24.315C18.4961 23.3527 16.9899 21.1927 16.7053 20.7844C16.6854 20.7558 16.6714 20.7358 16.6637 20.7255L16.6617 20.7229C16.5359 20.555 15.6929 19.4303 15.6929 18.2663C15.6929 17.1713 16.2309 16.5973 16.4785 16.3331C16.4954 16.315 16.511 16.2983 16.525 16.2831C16.7429 16.0451 17.0005 15.9856 17.1589 15.9856C17.3174 15.9856 17.476 15.9871 17.6145 15.994C17.6316 15.9949 17.6494 15.9947 17.6678 15.9947C17.8063 15.9938 17.979 15.9928 18.1494 16.4021C18.2149 16.5596 18.3109 16.7931 18.412 17.0393C18.6165 17.5373 18.8426 18.0876 18.8823 18.1672C18.9418 18.2862 18.9814 18.425 18.9021 18.5837C18.8903 18.6075 18.8793 18.63 18.8687 18.6514C18.8093 18.7729 18.7655 18.8623 18.6645 18.9803C18.6247 19.0267 18.5837 19.0767 18.5426 19.1266C18.4609 19.2262 18.3791 19.3258 18.3079 19.3967C18.1889 19.5153 18.0649 19.6439 18.2036 19.8819C18.3423 20.1199 18.8194 20.8983 19.5261 21.5287C20.2858 22.2063 20.9461 22.4927 21.2807 22.6379C21.3461 22.6663 21.399 22.6892 21.4379 22.7087C21.6755 22.8277 21.8142 22.8078 21.9529 22.6491C22.0915 22.4905 22.5471 21.955 22.7056 21.717C22.864 21.4791 23.0226 21.5187 23.2405 21.5981C23.4584 21.6775 24.6271 22.2525 24.8649 22.3715C24.9113 22.3947 24.9547 22.4157 24.9949 22.4351Z" fill="white"/>
</g>
<defs>
<clipPath id="clip0_555_3821">
<rect width="32" height="32" fill="white" transform="translate(4 5)"/>
</clipPath>
</defs>
</svg>
