<svg width="27" height="35" viewBox="0 0 27 35" fill="none" xmlns="http://www.w3.org/2000/svg">
<g clip-path="url(#clip0_555_3948)">
<path d="M8.43748 4.92188C8.43748 2.20356 10.704 0 13.5 0C16.296 0 18.5625 2.20356 18.5625 4.92188C18.5625 7.64012 16.296 9.84375 13.5 9.84375C10.704 9.84375 8.43748 7.64012 8.43748 4.92188ZM26.3409 5.01573C25.4623 4.16145 24.0376 4.16145 23.159 5.01573L17.068 10.9375H9.9319L3.84094 5.01573C2.96232 4.16145 1.53765 4.16145 0.659021 5.01573C-0.219674 5.87002 -0.219674 7.25505 0.659021 8.10934L7.31248 14.5779V32.8125C7.31248 34.0206 8.31985 35 9.56248 35H10.6875C11.9301 35 12.9375 34.0206 12.9375 32.8125V25.1562H14.0625V32.8125C14.0625 34.0206 15.0698 35 16.3125 35H17.4375C18.6801 35 19.6875 34.0206 19.6875 32.8125V14.5779L26.3409 8.10927C27.2196 7.25498 27.2196 5.87002 26.3409 5.01573Z" fill="#B4E4FF"/>
</g>
<defs>
<clipPath id="clip0_555_3948">
<rect width="27" height="35" fill="white"/>
</clipPath>
</defs>
</svg>
