<svg width="35" height="35" viewBox="0 0 35 35" fill="none" xmlns="http://www.w3.org/2000/svg">
<g clip-path="url(#clip0_555_3943)">
<path d="M8.75 17.5001C7.01942 17.5001 5.32769 18.0132 3.88876 18.9747C2.44983 19.9362 1.32832 21.3027 0.666058 22.9016C0.00379121 24.5004 -0.169488 26.2598 0.168133 27.9571C0.505753 29.6544 1.33911 31.2135 2.56282 32.4372C3.78653 33.6609 5.34563 34.4943 7.04296 34.8319C8.7403 35.1695 10.4996 34.9963 12.0985 34.334C13.6973 33.6717 15.0639 32.5502 16.0254 31.1113C16.9868 29.6724 17.5 27.9806 17.5 26.25C17.5 23.9294 16.5781 21.7038 14.9372 20.0629C13.2962 18.4219 11.0707 17.5001 8.75 17.5001ZM34.6582 13.7499L27.3485 1.25036C27.1232 0.869451 26.8026 0.553817 26.4182 0.334563C26.0337 0.115309 25.5988 0 25.1563 0C24.7137 0 24.2788 0.115309 23.8944 0.334563C23.5099 0.553817 23.1893 0.869451 22.964 1.25036L15.6543 13.7499C14.6809 15.4165 15.899 17.5001 17.848 17.5001H32.4646C34.4135 17.5001 35.6316 15.4165 34.6582 13.7499ZM32.8125 19.6876H21.875C21.2948 19.6876 20.7384 19.918 20.3282 20.3283C19.918 20.7385 19.6875 21.2949 19.6875 21.875V32.8125C19.6875 33.3927 19.918 33.9491 20.3282 34.3593C20.7384 34.7696 21.2948 35 21.875 35H32.8125C33.3927 35 33.9491 34.7696 34.3593 34.3593C34.7695 33.9491 35 33.3927 35 32.8125V21.875C35 21.2949 34.7695 20.7385 34.3593 20.3283C33.9491 19.918 33.3927 19.6876 32.8125 19.6876Z" fill="#F5FFC0"/>
</g>
<defs>
<clipPath id="clip0_555_3943">
<rect width="35" height="35" fill="white"/>
</clipPath>
</defs>
</svg>
